<svg
            xmlns="http://www.w3.org/2000/svg"
            version="1.0"
            viewBox="0 0 1024 1024"
            preserveAspectRatio="xMidYMid meet"
        >
            <g
                xmlns="http://www.w3.org/2000/svg"
                transform="matrix(0.23786, 0, 0, -0.238973, -739.744629, 2143.682617)"
                fill="#000"
                stroke="none"
            >
                <path d="M 5005 8964.22 C 4757 8935.93 4450 8834.88 4216 8704.53 C 4051 8613.59 4009 8585.3 3868 8471.12 C 3695 8331.68 3581 8202.34 3419 7958.83 C 3273 7740.57 3167 7475.84 3136 7250.51 L 3130 7209.08 L 4262 7203.02 C 4884 7198.98 5394 7196.95 5396 7197.97 C 5397 7199.99 5402 7358.63 5406 7552.63 L 5413 7903.25 L 5654 7903.25 C 5787 7903.25 5924 7898.2 5960 7893.15 C 6057 7879 6175 7816.36 6242 7743.6 C 6387 7584.97 6395 7320.23 6260 7127.23 C 6202 7043.37 6131 6982.74 6041 6940.3 L 5978 6909.99 L 5534 6904.94 L 5090 6899.89 L 5090 5796.48 L 5090 4693.08 L 5228 4687.02 C 5600 4669.84 6024 4790.08 6394 5018.44 C 6554 5117.47 6782 5322.59 6862 5440.81 C 6883 5472.13 6927 5526.69 6958 5562.06 C 7037 5647.95 7073 5696.45 7104 5759.1 C 7119 5788.4 7146 5835.89 7164 5865.19 C 7247 5996.55 7317 6165.29 7348 6306.76 C 7426 6660.41 7435 6922.11 7380 7240.4 C 7324 7563.75 7242 7755.73 7028 8064.93 C 6844 8329.66 6680 8485.27 6413 8648.96 C 6177 8793.45 5869 8906.62 5595 8949.06 C 5476 8968.26 5118 8977.35 5005 8964.22 Z M 5583 8657.04 C 5853 8612.58 6061 8526.7 6320 8352.9 C 6427 8281.16 6483 8233.67 6591 8125.55 C 6740 7975 6793 7910.33 6866 7782 C 7009 7535.45 7075 7331.34 7105 7049.43 C 7146 6672.54 7089 6352.23 6923 6017.77 C 6853 5876.31 6749 5711.6 6724 5703.52 C 6718 5701.5 6678 5732.82 6634 5772.23 C 6503 5892.47 5830 6566.44 5830 6578.56 C 5830 6585.64 5860 6589.68 5914 6589.68 C 5974 6589.68 6023 6596.75 6086 6614.94 C 6324 6683.65 6468 6810.97 6590 7059.53 C 6728 7339.43 6721 7638.52 6572 7859.81 C 6461 8025.52 6318 8133.64 6130 8196.28 C 6034 8227.61 5782 8239.73 5403 8231.65 L 5090 8224.58 L 5090 7876.98 L 5090 7529.39 L 4922 7529.39 L 4753 7529.39 L 4752 8037.64 C 4751 8316.52 4754 8563.07 4758 8585.3 L 4765 8624.71 L 4850 8642.9 C 5098 8695.44 5326 8699.48 5583 8657.04 Z M 4434 8386.25 C 4437 8335.72 4440 8120.5 4440 7907.3 L 4440 7521.31 L 4278 7526.36 C 4188 7529.39 4114 7532.42 4113 7533.43 C 4112 7534.44 4110 7700.16 4110 7902.24 C 4108 8320.57 4098 8275.1 4210 8355.93 C 4264 8395.34 4399 8473.14 4421 8478.2 C 4424 8478.2 4430 8437.78 4434 8386.25 Z M 3795 7941.65 C 3797 7934.58 3800 7838.59 3802 7728.45 L 3805 7529.39 L 3668 7529.39 C 3592 7529.39 3530 7530.4 3530 7532.42 C 3530 7555.66 3603 7747.65 3614 7753.71 C 3623 7758.76 3637 7776.95 3646 7795.14 C 3665 7830.5 3770 7953.78 3783 7953.78 C 3787 7953.78 3793 7947.71 3795 7941.65 Z M 5771 6158.22 C 6531 5405.44 6482 5456.97 6468 5439.8 C 6443 5409.48 6272 5287.22 6167 5225.58 C 6042 5151.82 5865 5074.02 5742 5038.65 C 5641 5010.36 5495 4983.08 5438 4983.08 L 5399 4983.08 L 5401 5745.96 C 5402 6165.29 5406 6508.84 5410 6508.84 C 5413 6508.84 5576 6351.22 5771 6158.22 Z"></path>
                <path d="M 3158 6873 L 3110 6869 L 3110 6786 C 3110 6602 3145 6377 3201 6208 C 3240 6086 3371 5822 3457 5690 C 3495 5632 3553 5556 3586 5520 C 3619 5484 3681 5414 3723 5363 C 3765 5313 3833 5241 3874 5203 C 3956 5128 4112.888 5027.191 4165.393 4991.22 C 4273.044 4917.468 4418 4860 4418 4860 L 4452 4845 C 4471 4838 4542 4815 4610 4795 C 4678 4774 4739 4756 4747 4753 C 4757 4749 4759 4921 4756 5692 C 4753 6210 4755 6687 4759 6750 C 4764 6813 4767 6866 4766 6866 C 4763 6870 3198 6876 3158 6873 Z M 4439 5795 C 4439 5625 4437 5415 4433 5329 L 4427 5172 L 4340 5225 C 4249 5280 4133 5364 4113 5390 C 4106 5398 4103 5412 4106 5420 C 4110 5428 4115 5683 4119 5987 C 4122 6290 4129 6542 4133 6547 C 4138 6551 4205 6557 4283 6560 L 4425 6565 L 4431 6335 C 4435 6209 4438 5966 4439 5795 Z M 3800 6223 C 3800 5882 3794 5750 3779 5750 C 3768 5750 3633 5925 3591 5995 C 3531 6094 3467 6317 3445 6503 L 3438 6560 L 3619 6560 L 3800 6560 L 3800 6223 Z"></path>
            </g>
        </svg>